<svg id="Layer_1" xmlns="http://www.w3.org/2000/svg" viewBox="-447 249 64 64"><style>.st0{fill:#f26522}</style><path class="st0" d="M-437.1 291.4c-3.4.2-6.8 3.8-6.4 7.5.4 3.7.9 5.7 2.2 7.5s5.5 3.4 8.8 3.4c3.4 0 6.6-1.5 7.1-5.3.4-3.8.2-6.4-1.8-9-2-2.7-4.7-4.4-9.9-4.1zm6.3 13.4c-2.3 1.6-5.8 1.3-8.4-.1-2.6-1.5-3.4-5.2-2.4-7.7s3.3-4.5 6.1-4.4c3.1.1 5.8 1.6 7 4.2s-.1 6.4-2.3 8zm47.8-9.9c-.2-8.9-2.4-15.5-6-21.4-3.6-6-8.2-12.2-18.2-17.3-10.1-5.2-19.7-6.9-25.9-7.1-6.2-.2-10.1.3-11.5 1.4-1.4 1.1-1.2 5.1-1.2 7.5 0 2.4.4 3 1.2 4.4.8 1.4 2.6 2.2 5.5 2.9 1.9.5 13.9 1.9 20.2 4 6.3 2.1 10.2 6.1 13.2 10.7s5.3 12.8 6.1 17.5.4 12.1 1.1 13.5c.7 1.3 5.4 1.8 7.8 2 2.4.2 3.9-.2 5.2-1 1-1 2.7-8.2 2.5-17.1zm-1.7 4.1c-.1-.1-6-6.1-6.1-5.8-.1.3-.3 1.4.1 1.8.4.4 5.8 5 5.9 5.3.1.3.1 2.1-.1 2-.2-.1-6.1-6.1-6.3-6-.1.1-.3 1.1 0 1.5.4.3 6.1 5.7 6.1 6.1 0 .4 0 2-.2 2s-6-6.3-6.2-6.2c-.1.1-.4 1-.1 1.5.2.4 5.6 5.4 5.6 5.4s-1.1.5-1.1.4c-.1-.1-4.8-4.6-5-4.5-.2.1-.8.6-.6.9.2.2 4.3 3.8 4.1 3.8s-1.9.1-2.1 0c-.2-.2-3-3-3.2-3s-.7.8-.5.9c.2.1 1.7 1.7 1.6 1.7s-1.8-.1-1.9-.3c-.1-.2-.1-4.2-1.9-12.3-1.8-8.1-4.4-15.9-7.7-19.7-3.3-3.9-11.2-9.1-19.4-10.6-8.3-1.6-17.8-2.5-19.3-2.9-1.2-.3-1.2-1-1.4-2.8-.1-1.8.2-5.7.8-6.4.6-.7 3.9-1 7.1-1 3.2 0 9.4.3 15.1 1.9 5.8 1.6 16.3 4.8 22.3 10.8 6 6 9.3 11.5 9.3 11.5s-1.7-1.5-1.7-1.1c0 .5-.2 1.3 1 2.2 1.2.9 2.6 2.8 3.3 3.9.6 1.1.7 1.7.7 1.7s-3.6-3.6-3.8-3.3c-.2.3-.4 1.1.1 1.5.5.4 4.3 4.2 4.5 4.5.2.3.9 2.2.6 2.1-.3-.1-4.8-4.2-5-4.1-.2.1-.3 1.2 0 1.4.2.2 5.1 4.2 5.3 4.7.2.4.6 3.1.4 3-.2-.1-5.2-5.6-5.6-5.5-.4.1-.3 1.1-.2 1.3.1.1 5.9 5.6 6 6.1.1.5.2 2 0 1.9-.2-.1-6-6.1-6.1-5.9-.2.2-.2 1.5 0 1.6.2.1 6.2 5.7 6.3 6.1-.4 0-.5 2-.7 1.9zm-29.3-22.2c-2.8-2.1-10.2-5.6-15.1-7-4.9-1.4-6.6-1.5-11.3-1.4-1.5 0-4 .7-4.1 2.3s-.8 7.4 0 8.6c.8 1.2 2.5 4.4 3.8 4.8 1.3.4 11.4 2.6 16.3 7.9 4.8 5.3 5.7 8.1 6 11.2.4 3.1-.5 7.8.4 8.5 1 .7 4.4 1 7.2 1.3 2.9.2 4.6-.2 6.1-1.8 1.5-1.5 2.2-3.4 2.3-6 .1-2.5-.5-10.8-2.7-15.9-2-5-6.1-10.5-8.9-12.5zm9.4 19c0 .2-3.7-3.3-3.9-3.3s-.6.7-.5 1c0 .3 4.6 4 4.8 4.2.2.2.2.9.2 1.1 0 .3-4.5-3.9-4.7-3.9-.2 0-.4.9-.1 1.2.3.3 4.8 4.1 4.9 4.3.1.2.1 1.3.1 1.7-.1.4-4.2-3.9-4.4-3.8-.2 0-.4.6-.1 1 .2.4 4.3 4 4.6 4.1.2.1.2 1.5.1 1.8-.1.3-3.9-3.9-4.3-4.3-.4-.4-.6-.3-.9.1-.3.4.1.7.5 1.1.3.4 4.5 4.3 4.5 4.3s-.3 1-.6 1-3.9-4.1-4.2-4.4c-.3-.3-.8.5-.9.9 0 .3 3.8 3.8 4 4.1.2.3-1.5.3-1.9.2-.4-.1-3.1-2.7-3.5-3.1-.4-.4-.7.3-.8.8-.1.4 2.3 2.3 2.3 2.3s-.5.1-1.2 0-1.7 0-2.4-.6-1-5.2-1.8-10.6c-.8-5.5-4.4-8.9-10.5-12.8-6.1-3.9-12-4.4-14.2-4.7-2.2-.3-3.1-1-3.6-1.4-.5-.4-.2-5.9.1-7 .3-1.1 1.9-1.3 4.1-1.4 4.5-.2 9.2 1.3 13.8 3s9.6 4.3 11.6 6c2 1.7 4.5 5.7 4.5 5.8 0 .1-1.2-.6-1.6-.8-.5-.2-.2.9-.1 1 0 .2 3.9 2.5 4 2.7s.6 1.5.5 1.8c0 .3-2.5-1.9-2.9-2.2-.4-.3-.5.6-.4 1.1 0 .4 4.1 3.2 4.3 3.5.2.3.2.6.1.9s-3.7-3.1-3.9-3.1c-.2 0-.3 1-.1 1.3.1.2 4.5 3.6 4.6 3.8-.2.2-.1 1.1-.1 1.3zm-35.7-43.4c-1.3.6-1.9 3.1-1.8 4.1.1 1 1 2.1 1.6 1.9.4-.1.4-1.2.2-1.4-.2-.1-.4-.9-.1-2 .3-1.1 1.4-1.1 1.9-1.6.6-.6-.4-1.6-1.8-1zm-.3 20.3c-.8 0-1.7 1.2-1.7 1.8 0 .6.7 2 1.2 2 .4 0 .6-.6.4-1.1-.1-.5.5-1.2.8-1.6s.1-1.1-.7-1.1zm2.9 23.5c-1 .2-2.6 2.4-2.6 3-.1 2.3.4 2.5 1.1 2.4.7 0 .4-.9.4-1.8s1.2-2.2 1.9-2.8c.7-.5.2-1.1-.8-.8z"/></svg>