<svg viewBox="0 0 64 64" xmlns="http://www.w3.org/2000/svg"><path d="M62.827 26.474c-.62-4.577-2.548-8.12-5.003-12.605-2.456-4.487-6.91-7.684-10.053-9.915C44.63 1.725 40.268.69 36.068.275s-9.404-.44-12.9.484c-4.865 1.286-7.986 2.62-11.29 5.633s-5.762 6.072-7.85 9.5C1.935 19.32.35 24.563.1 27.118c-.252 2.553-.046 6.05.85 10.03.894 3.978 2.914 7.68 5.806 12.144 2.892 4.462 6.954 7.29 11.66 10.144C23.12 62.288 32.99 64.45 36.73 63.92c3.743-.527 8.884-1.815 14.163-6 5.28-4.187 8.217-11.11 9.823-15.435 1.607-4.325 2.732-11.433 2.112-16.01zM55.39 46.117c-.16 0-2.18-3.703-2.294-3.98-.088-.21.826-1.908.918-1.93.092-.024 2.226 3.886 2.203 3.978-.023.092-.666 1.932-.826 1.932zM47.634 21.62c-.092-.252-.138-.482-.115-.574.022-.092.642-1.656.46-3.013-.186-1.357-.78-3.52-.736-3.588.046-.07 2.456 1.863 3.833 4.968s2.548 5.474 2.984 9.683.23 7.314-1.26 10.144-2.57 4.44-3.398 5.29c-.825.85-2.547 1.656-2.753 1.656s-.94-3.726-1.516-4.9c-.574-1.172-1.607-2.713-1.584-2.966 0 0 1.72-1.54 2.318-2.46.597-.92 2.548-4.164 2.456-7.752-.092-3.59-.597-6.234-.69-6.487zm9.456 21.323c-.185.16-2.656-4.102-2.526-4.232.207-.205.895-2.413 1.033-2.505s2.41 4.048 2.41 4.324c0 .275-.734 2.253-.918 2.414zm3.12-11.317c-.297-.253-2.202-4.53-2.455-4.623-.252-.092-.826.897-.69 1.265s2.663 4.53 2.732 4.922c.07.39-.184 2.392-.252 2.093-.07-.3-1.974-4.002-2.203-4.002-.23 0-.85.807-.826.945.023.138 2.502 4.738 2.502 5.037 0 .3-.344 2.186-.55 1.84-.208-.344-2.618-4.346-2.663-4.46-.046-.116.046-5.613-.23-8.074-.274-2.46-1.192-7.337-4.612-11.317-3.42-3.98-7.046-6.716-12.28-7.96s-8.4-1.17-12.324-.987c-3.927.184-9.596 2.438-13.475 8.05-3.88 5.612-4.453 7.176-5.325 11.225-.87 4.048.093 10.052.804 12.65.712 2.6 2.57 6.372 4.682 8.327 2.112 1.955 4.75 3.174 6.817 3.933s5.187 1.22 5.44 1.127c.252-.092.138-3.266 0-3.634-.138-.367-.252-.55-1.102-.505-.847.046-2.385.023-3.395-.437-1.01-.46-1.836-1.38-2.41-2.415-.574-1.035-1.4-2.3-1.836-2.783-.437-.484-1.355-1.312-1.24-1.473.115-.16 1.836-.322 3.03.046 1.194.368 3.213 1.725 4.085 2.277.872.552 1.997 1.357 2.387 1.357.39 0 1.195-1.84 1.54-2.277.343-.437 1.147-1.91.802-2.23-.344-.323-2.456-.415-3.512-.69-1.056-.277-2.96-1.312-4.315-3.083-1.354-1.77-1.974-4.416-1.95-6.28.022-1.862 1.835-5.45 2.202-6.163.366-.713.85-1.38.62-1.633-.23-.25-1.217-1.63-1.447-2.597-.228-.966.598-3.335.758-3.427.16-.092 1.263.207 2.09.322.826.115 2.66.62 3.35 1.08.69.46.94.69 1.33.69.39 0 3.42-.69 4.455-.92 1.033-.23 4.085-.597 5.233-.367 1.148.23 2.87 1.266 3.167 1.08.298-.182.987-1.493 2.456-1.86 1.47-.37 3.97-.53 4.27-.277.298.253.734 2.898.505 4.255-.23 1.357-.62 2.14-.39 2.507.23.368 1.33 2.852.757 5.06-.575 2.208-1.4 5.36-4.132 7.452-2.73 2.093-3.626 2.438-3.948 2.645-.32.208 0 .852.298 1.105s2.318 1.61 3.305 4.646c.987 3.037 1.148 4.83 1.148 5.452s.713.874 1.263.76c.55-.116 1.193-.507 2.09-1.197.894-.69 3.442-2.507 3.625-2.415.185.092 1.768 3.473 2.158 3.588a.55.55 0 0 0 .71-.39c.047-.23-1.238-2.69-1.583-3.36-.344-.665-.597-1.056-.505-1.263.092-.207.872-1.15 1.033-.99.16.162 1.86 2.853 2.157 3.313.298.46.528.552.207 1.104-.32.553-1.446 2.025-1.997 2.508-.55.483-.757 1.08-1.08.828-.32-.253-1.927-3.15-2.18-3.197-.25-.047-.94.574-.87.78s2.18 3.336 2.18 3.474-1.057 1.495-2.158 2.346-1.814 1.38-2.02 1.08c-.208-.298-2.365-5.312-2.71-5.38-.343-.07-1.055.183-.94.597.115.414 2.754 5.06 2.73 5.29s-.87.782-1.124.552c-.252-.23-3.03-5.958-3.374-6.004s-.94.115-.94.667 3.58 5.635 3.42 5.91c-.162.277-.827.898-1.08.645-.252-.253-3.535-6.808-3.764-6.854-.23-.046-1.056.184-1.056.345 0 .16 3.718 7.06 3.695 7.22-.024.163-1.447.853-1.768.69-.32-.16-3.58-7.45-3.833-7.61-.253-.16-1.263.53-1.194.62.07.092 4.017 6.946 3.81 7.29-.207.346-1.125.46-1.285.3-.16-.16-3.856-7.222-4.11-7.29s-1.03.32-.962.62c.07.3 3.925 6.74 3.81 6.785-.115.046-1.102.092-1.262-.023-.16-.114-3.49-5.335-3.902-5.45s-.895.506-.895.644 3.19 4.738 3.03 4.784c-.16.046-1.217-.046-1.447-.184-.23-.138-2.433-4.048-2.73-4.14-.3-.092-1.01.437-.92.667.093.23 2.25 3.175 1.975 3.175s-1.01.023-1.33-.16c-.322-.185-1.837-3.267-2.113-3.36-.275-.09-.826.323-.85.438-.022.115 1.172 2.277.92 2.3-.253.023-1.08-.023-1.286-.184-.208-.162-1.608-2.508-1.814-2.577-.207-.07-.872.3-.803.506s.734 1.22.505 1.24c-.23.025-4.958-1.286-7.505-3.034-2.548-1.748-7.3-7.13-8.768-8.763-1.47-1.633-3.512-6.51-4.223-9.155-.71-2.645-.894-6.578-.87-8.67.022-2.094 1.652-7.59 2.57-9.455.918-1.863 4.453-6.923 6.84-9.338s6.243-5.267 10.305-6.486 7.482-1.473 9.364-1.45c4.476.055 9.57.713 12.69 1.77 3.123 1.06 8.953 5.66 10.4 7.315 1.445 1.656 3.19 4.623 4.222 6.785 1.034 2.16 1.79 4.024 1.585 3.863s-1.492-2.415-1.744-2.392c-.25.025-.802.416-.71.715.092.3 2.433 3.933 2.662 4.393.23.46.46.99.482 1.08.023.093.32 3.244.23 3.083-.092-.16-2.318-4.21-2.617-4.323-.298-.115-.528.345-.46.46.07.115 3.1 5.29 3.1 5.543-.003.253.112 2.37-.186 2.116zm-41.634-9.844c.482.46-.62 1.196-1.4 2.92-.78 1.726-1.492 5.13-1.08 7.177.414 2.045 1.355 4.46 3.558 6.37 2.203 1.91 5.187 2.023 5.508 2.184.32.16-.55 1.31-.734 1.54-.184.23-.16.185-.597-.045-.434-.23-2.936-2.37-5.552-2.92-2.617-.554-4.223.23-4.797.734-.573.506.07 1.426.804 1.978s1.584 1.587 2.662 3.565c1.08 1.978 1.744 2.415 3.49 3.013 1.743.6 3.12.622 3.396.645.276.023.208.828.024 1.127-.184.3-.895-.46-1.95-.76-1.057-.298-3.03-.482-4.132-1.172s-4.66-4.853-5.325-6.67c-.667-1.817-2.067-5.91-2.09-7.958-.023-2.047-.184-5.543.62-8.165.803-2.622 2.57-6.97 5.256-9.96 2.685-2.99 6.564-5.29 12.302-5.91 5.738-.622 10.787 1.103 13.932 2.184 3.144 1.083 3.88 1.75 3.88 1.957 0 0-.942.184-3.42.345-2.48.162-4.086 1.473-4.178 1.634-.092.16-2.617-.414-5.256-.62-2.64-.208-6.29.965-6.426.965s-.505-.023-1.492-.414c-.987-.39-5.692-1.426-6.243-1.38-.55.046-1.767 1.54-2.02 3.772-.252 2.232.78 3.405 1.263 3.865zM37.26 2.277c-4.11-.575-6.732-.306-6.91-.138-.412.39-.274 1.15.23 1.24.505.092 2.96-.3 6.197.023 3.236.322 5.623 1.54 6.128 1.564.505.023.803-.805.528-1.104-.276-.3-2.066-1.012-6.174-1.587zM6.824 17.664c-3.26 3.38-3.856 7.82-4.13 9.34s.71 2.16 1.17 1.954c.46-.207-.023-1.495 1.033-4.876s2.41-4.6 2.846-5.45c.435-.853-.687-1.208-.92-.968zm15.01 13.088c-.367-.966-.092-2.23.138-3.312.23-1.08-.804-1.035-1.056-.782-.666.667-.918 2.783-.666 4.094.253 1.31 1.424 3.243 2.044 3.542.62.3 1.216-.092 1.08-.736-.14-.644-1.172-1.84-1.54-2.806zm-3.74 10.604c-1.01.667-.024 1.334.39 1.334s.825-.16.642-.805c-.184-.644-.793-.688-1.033-.53zm2.088 1.817c-.734.414-.07 1.357.413 1.38s.872-.345.895-.828c.024-.483-.987-.733-1.307-.552zm2.87 1.288c-1.034.23-.69 1.244-.185 1.313s.94-.115 1.08-.644c.136-.53-.246-.813-.896-.668zm18.43-26.472c.23.023.917.138 1.238.138.322 0 .3 1.886.46 2.46.16.576 1.01.6 1.33.277.322-.322-.114-3.404-.343-3.703-.23-.3-2.446.12-2.73.183-.208.045-.185.62.045.644zm6.104 36.433c.23.047.826-.23.872-.574.045-.345-1.722-4.53-1.883-4.623-.16-.092-1.216.262-1.216.46 0 .39 1.997 4.692 2.226 4.738z"/></svg>