<svg id="Layer_1" xmlns="http://www.w3.org/2000/svg" viewBox="-447 249 64 64"><style>.st0{fill:#55acee}</style><path class="st0" d="M-384.5 265.9s.9-1.5 1-2.3c.1-.9.1-1.9-.3-2.2s-2.2.2-3.5.7c-1.4.4-4.2.9-4.2.9s-1.7-5.1-4.5-7.1-6.5-2-9.6-1.3c-3.1.7-6.9 2.7-8.7 4.8-1.8 2.1-3.3 6.3-3.8 7.9-.5 1.7-1.6 4.6-2.8 4.8-1.2.2-3.4-.6-5.4-1.8-1.9-1.2-6.9-5.2-9.4-7.5s-6-6.2-7.2-6c-1.1.2-2.5 4.4-2.5 7.3 0 2.9 2.6 5.8 2.6 5.8-1.1 3.8-.4 6.6.6 8.5s3.2 3.3 3.2 3.3c-.3 1.3-.1 2.9.3 4.4.5 1.4 3 3.2 3 3.2s-1.5 1.2-3.8 1.9-6.8 0-7.3 0c-.5.1 0 6 0 6.9 0 .9.6 1.5 1.4 2.1.8.6 6.9 3.7 15.6 5.9s15.5.3 20.6-1.9c5.2-2.2 10.7-9.1 14.3-14.6 3.6-5.5 6-13.4 6-13.4s1.3-.7 3.3-2.1c1.9-1.4 2.6-3.8 2.7-5.3-.1-1.7-1.6-2.9-1.6-2.9zm-4.3 3.2c.6 0 3-1.4 3.3-1.1.3.2-.7 2.1-2.5 3.1s-3.1 1.6-3.4 1.5-1.6-2.5-1.8-2.4c-.2 0-.8.5-.6.8.1.3 1.5 2.2 1.4 2.5-.1.3-.2.4-.4.2s-1.5-3-1.9-3.1c-.4-.1-.9.7-.6 1.1.2.4 2 2.6 1.9 3 0 .4-.4 2-.6 1.7-.1-.2-2.3-4.3-2.5-4.2-.2 0-.7 1-.6 1.2.1.3 2.7 4 2.7 4.3 0 .3-.8 1.9-1 1.6-.2-.3-2.5-5-2.7-5-.2 0-.8.8-.8 1 0 .2 2.9 5 2.9 5.3.1.4-.6 2.4-.9 2.2-.3-.1-2.6-5.9-2.8-5.9-.3 0-.7.8-.6 1.2.1.4 2.8 5.5 2.8 5.9 0 .4-.4 1.2-.6 1.1-.1-.1-3-7.3-3.3-7.2-.3 0-.7.7-.4 1.6.2.8 3.2 6.2 3.2 6.6 0 .4-.7 1.4-.8 1.2-.1-.2-3.2-7-3.5-6.9-.3.1-.7 1.1-.4 1.6.2.4 3.4 6 3.4 6.1s-.8 1.5-1 1.4c-.2-.1-2.9-6.4-3.2-6.4-.3 0-.8.7-.5 1.4.3.7 3.1 5.5 3 5.8s-.9 1.4-1 1.1c-.1-.2-3-6.7-3.3-6.7-.3 0-1.1.7-.8 1.3.3.6 3.5 6.2 3.3 6.3-.1.1-1.3 1.6-1.4 1.5-.2-.1-3.2-6.6-3.5-6.5-.3.1-.8.6-.5 1.1.3.5 3.4 6 3.3 6.2-.1.2-.9.9-1.1.6-.2-.2-3.2-6.1-3.5-6.1-.3 0-1 .9-.8 1.3.2.4 3.7 5.7 3.5 5.9s-1.2 1.2-1.4 1c-.1-.2-2.8-5.6-3.3-5.5-.5 0-.9.9-.7 1.1.2.3 2.9 4.8 2.9 4.8s-1.3.8-1.5.5c-.2-.2-2.4-5.2-2.6-5.2s-1.1.6-.8 1.1c.4.6 2.6 4.3 2.4 4.5-.2.2-.9.5-1.1.2-.2-.2-2.4-5.2-2.7-5.2-.2 0-1.1.4-.9.7.2.4 2.5 5 2.4 5.1-.1.1-1.5.5-1.7.3-.2-.2-2.1-4.3-2.4-4.3s-.6.5-.6.7c.1.2 2.1 3.8 2 3.9-.1.1-1.5.3-1.7.2-.1-.1-2-4.4-2.3-4.5-.3-.1-.9.5-.8.9.1.4 1.8 3.6 1.6 3.6-.2.1-1.4.1-1.6-.1s-1.6-3.7-2-3.8c-.3-.1-.9.1-.7.6s1.9 3.6 1.6 3.6-1.6 0-1.8-.1c-.1-.1-1.6-3.6-1.9-3.7-.2-.1-1.1-.1-.9.3.1.5 1.7 3.2 1.4 3.2-.3 0-1.8-.3-2-.5-.2-.2-1.6-3.5-1.9-3.5-.3 0-.9.3-.8.7.1.4 1.4 2.7 1 2.7-.3-.1-1.8-.3-1.8-.5s-1.5-3.2-1.7-3.3-1.1 0-.9.4c.2.4 1.1 2.4 1 2.4-.1 0-3.5-1-6.3-2.4s-5.3-3.6-5-3.7c.3-.1 3.9.2 6.4-.7 2.5-.9 5-1.9 5.1-2.2.1-.3-.3-.9-.4-1-.1 0-3.1-1-3.8-3.1-.6-2.2-.1-4.5-.5-4.8-.4-.3-2.4-1.1-3.4-4.2s.1-7.3-.1-7.6c-.2-.3-.6-.9-.9-.8-.4.1-1.5-2.3-1.6-4.6s1-5.3 1.2-5.3c.2 0 6.6 6.2 10 9 3.4 2.9 7.4 5.8 9.7 6.2s3.3.5 4.4-1.8c1.1-2.2 2.3-7.7 4-10.2 1.7-2.5 5.1-5.4 9.6-6.1 4.4-.7 7.8.5 9.6 3 1.8 2.5 1.9 5.7 2.3 6 .4.3 2.3.2 4.6-.6s3.1-1 3.3-1c.1 0-.5 1.5-2 2.7-1.5 1.2-2.5 2.1-2.5 2.7s.5 1 1.1 1zm-52.1-4.2c-.7-.5-.4-1.8-.2-2.7.2-.9-1.3-.7-1.5.3-.2 1 0 2.5.9 3.2.8.7 1.6.7 1.8.5.2-.3-.3-.8-1-1.3zm20.1 10.1c-.5-.1-1.9.6-3.3-.1s-2.8-2.4-3.4-2.2c-.4.1-.9.7.2 1.7 1 1 3 1.8 4.6 1.8 1.6.1 2.5-1.1 1.9-1.2zm9.9-12.5c-.4-.1-1.9.9-2.6 2.1-.7 1.2-1.8 3.6-1 4.1.6.3.8-.1 1.3-1.4.4-1.4 1.3-2.9 1.7-3.5.5-.6.9-1.2.6-1.3z"/></svg>