<svg viewBox="0 0 64 64" xmlns="http://www.w3.org/2000/svg"><path d="M9.887 42.397c-3.39.186-6.815 3.82-6.383 7.497.432 3.677.912 5.683 2.208 7.498 1.296 1.815 5.47 3.39 8.83 3.39s6.624-1.48 7.056-5.3c.432-3.82.192-6.4-1.824-9.026-2.015-2.626-4.655-4.345-9.887-4.06zm6.288 13.372c-2.256 1.574-5.807 1.335-8.447-.145-2.64-1.48-3.36-5.205-2.4-7.69.96-2.482 3.265-4.482 6.143-4.392 3.074.095 5.81 1.624 7.01 4.202 1.2 2.578-.05 6.447-2.304 8.023zm47.802-9.888c-.24-8.882-2.4-15.473-6.047-21.442-3.648-5.968-8.16-12.176-18.238-17.334S19.966.23 13.775.04c-6.19-.192-10.08.333-11.52 1.384C.815 2.474 1.01 6.534 1.01 8.92c0 2.39.384 3.01 1.152 4.442s2.554 2.156 5.52 2.913c1.87.478 13.917 1.91 20.205 3.964 6.287 2.05 10.175 6.11 13.198 10.695s5.327 12.846 6.143 17.526c.816 4.68.384 12.13 1.056 13.468.672 1.336 5.423 1.766 7.823 2.005 2.4.24 3.936-.19 5.183-1.05 1.25-.86 2.93-8.12 2.69-17.002zm-1.632 4.107c-.144-.144-6-6.066-6.095-5.78-.096.288-.288 1.386.144 1.768.432.38 5.76 4.965 5.855 5.252.094.287.094 2.053-.098 1.958-.192-.095-6.143-6.113-6.287-5.97s-.336 1.147.048 1.48c.384.335 6.095 5.684 6.095 6.114s-.05 2.006-.24 2.006c-.193 0-6.048-6.304-6.192-6.16-.144.143-.384 1.05-.144 1.48.24.43 5.567 5.444 5.567 5.444s-1.056.525-1.15.382c-.098-.143-4.85-4.584-5.04-4.49-.193.097-.77.622-.577.86.192.24 4.272 3.774 4.128 3.774s-1.87.143-2.063-.048c-.192-.19-3.024-3.01-3.216-3.01-.19 0-.72.765-.527.908.192.143 1.728 1.67 1.584 1.67s-1.776-.142-1.872-.333c-.096-.19-.144-4.155-1.92-12.273-1.776-8.118-4.367-15.855-7.68-19.723S31.487 16.23 23.23 14.652C14.975 13.076 5.424 12.17 3.888 11.74c-1.158-.325-1.248-1.004-1.392-2.82-.144-1.814.192-5.73.768-6.446S7.152 1.52 10.32 1.47c3.167-.047 9.358.335 15.117 1.91s16.318 4.777 22.27 10.794c5.95 6.017 9.262 11.51 9.262 11.51s-1.68-1.53-1.73-1.052c-.048.478-.24 1.337.96 2.197 1.2.86 2.64 2.816 3.264 3.914s.672 1.72.672 1.72-3.552-3.63-3.79-3.344c-.24.288-.385 1.052.143 1.48.527.43 4.27 4.203 4.462 4.49.192.287.912 2.197.624 2.1-.288-.094-4.8-4.154-4.99-4.058-.193.096-.29 1.194-.05 1.385.24.19 5.088 4.25 5.28 4.68.192.43.624 3.056.384 2.96-.24-.094-5.23-5.634-5.614-5.49s-.288 1.145-.192 1.288c.096.143 5.855 5.635 6 6.113.143.478.24 2.006 0 1.91-.24-.096-5.952-6.113-6.144-5.874-.192.24-.24 1.48 0 1.624.24.143 6.24 5.73 6.287 6.065.048.335-.048 2.34-.192 2.197zM33.02 27.783c-2.783-2.053-10.174-5.635-15.117-7.02-4.943-1.385-6.623-1.528-11.327-1.433-1.488.033-3.984.67-4.128 2.295-.144 1.624-.768 7.402.048 8.644.816 1.24 2.544 4.392 3.84 4.822s11.423 2.627 16.27 7.88c4.847 5.254 5.663 8.072 6.047 11.176.384 3.104-.528 7.832.432 8.5.96.67 4.367 1.05 7.247 1.29 2.88.238 4.607-.24 6.143-1.768 1.536-1.528 2.208-3.438 2.304-5.97.094-2.53-.53-10.792-2.69-15.854-2.16-5.062-6.287-10.506-9.07-12.56zm9.36 19.007c0 .193-3.744-3.293-3.936-3.34-.192-.05-.576.67-.528 1.002.048.335 4.56 4.012 4.8 4.203.24.19.24.86.24 1.146s-4.512-3.916-4.704-3.916c-.192 0-.432.907-.144 1.242.288.334 4.8 4.107 4.943 4.346.146.24.146 1.338.05 1.72-.096.382-4.175-3.868-4.416-3.82-.24.048-.384.62-.144 1.05.24.43 4.318 3.965 4.558 4.108.24.143.24 1.528.144 1.815-.096.287-3.936-3.916-4.32-4.346-.383-.43-.575-.288-.91.142-.337.43.143.67.48 1.098.335.43 4.51 4.298 4.51 4.298s-.288.955-.576 1.003c-.288.048-3.888-4.06-4.223-4.393-.336-.334-.816.525-.864.86-.05.334 3.84 3.773 4.03 4.107.192.334-1.488.334-1.92.24-.43-.096-3.07-2.723-3.456-3.105s-.72.333-.816.763c-.097.43 2.255 2.292 2.255 2.292s-.48.143-1.2.048c-.72-.095-1.68.048-2.4-.573-.72-.622-1.008-5.16-1.824-10.65-.816-5.492-4.416-8.882-10.51-12.798-6.096-3.916-12.048-4.44-14.207-4.728-2.16-.287-3.12-1.003-3.6-1.433-.48-.43-.24-5.92.096-6.97.335-1.05 1.92-1.34 4.126-1.433 4.463-.19 9.215 1.29 13.822 3.01s9.598 4.297 11.566 5.968c1.968 1.67 4.51 5.683 4.463 5.826-.05.144-1.153-.572-1.633-.81s-.192.86-.144 1.05c.048.19 3.888 2.53 4.032 2.674.144.143.576 1.528.528 1.815-.048.286-2.496-1.863-2.88-2.15-.384-.287-.48.62-.432 1.05.05.43 4.08 3.2 4.273 3.487.193.287.193.62.145.86-.048.24-3.696-3.056-3.936-3.056s-.288 1.05-.144 1.29 4.51 3.63 4.607 3.773c.1.14.196 1.048.196 1.24zM6.72 3.43c-1.344.62-1.92 3.103-1.776 4.058.144.955 1.043 2.064 1.584 1.862.384-.143.432-1.242.24-1.385-.192-.142-.432-.86-.096-2.005.336-1.146 1.44-1.098 1.92-1.624.48-.525-.528-1.528-1.872-.907zm-.288 20.295c-.816 0-1.68 1.194-1.728 1.815-.048.62.72 1.958 1.248 1.958.384 0 .576-.62.432-1.146-.144-.525.48-1.194.768-1.576.288-.382.096-1.05-.72-1.05zm2.88 23.448c-.96.24-2.57 2.428-2.593 3.01-.098 2.34.382 2.482 1.054 2.434.672-.048.432-.907.432-1.815 0-.907 1.2-2.244 1.92-2.77.72-.525.144-1.098-.816-.86z"/></svg>